<?xml version="1.0" standalone="no"?>
<!DOCTYPE svg PUBLIC "-//W3C//DTD SVG 20010904//EN"
 "http://www.w3.org/TR/2001/REC-SVG-20010904/DTD/svg10.dtd">
<svg version="1.0" xmlns="http://www.w3.org/2000/svg"
 width="720.000000pt" height="347.000000pt" viewBox="0 0 720.000000 347.000000"
 preserveAspectRatio="xMidYMid meet">

<g transform="translate(0.000000,347.000000) scale(0.100000,-0.100000)"
fill="#000000" stroke="none">
<path d="M1915 2674 c-49 -6 -122 -21 -161 -33 -39 -11 -77 -21 -84 -21 -26 0
-217 -103 -285 -155 -78 -58 -185 -156 -185 -170 0 -4 -12 -20 -26 -35 -27
-27 -103 -142 -129 -195 -7 -16 -28 -70 -45 -120 -17 -49 -36 -103 -42 -120
-6 -16 -13 -114 -15 -218 -4 -158 -2 -197 12 -252 16 -59 20 -65 39 -59 12 4
22 8 24 9 2 2 -4 37 -12 79 -9 41 -16 78 -16 81 0 13 19 3 48 -25 18 -16 37
-30 44 -30 6 0 19 -7 29 -16 10 -9 23 -13 28 -9 14 8 14 62 0 71 -11 6 -30 48
-44 94 -6 21 -1 18 32 -17 37 -40 73 -56 73 -33 0 14 41 12 87 -4 34 -12 44
-12 64 -1 13 8 43 24 67 37 47 25 48 26 27 94 -15 51 -51 84 -92 84 -11 0 -30
12 -44 26 -13 14 -42 35 -64 46 -22 11 -50 29 -62 40 -17 16 -25 18 -42 8 -17
-9 -29 -6 -66 16 -25 14 -45 32 -45 39 0 35 114 266 146 296 13 12 24 27 24
31 0 16 114 139 143 154 20 11 32 12 46 4 11 -5 31 -10 45 -10 36 0 56 -10 56
-29 0 -32 -29 -59 -70 -66 -53 -9 -51 -25 3 -25 31 0 49 6 62 20 10 11 22 20
26 20 13 0 41 -60 35 -75 -3 -8 0 -16 7 -18 7 -3 0 -9 -15 -15 -16 -7 -33 -25
-42 -45 -8 -19 -19 -38 -25 -41 -17 -11 -13 -55 9 -90 10 -18 40 -47 65 -65
25 -18 53 -44 61 -57 10 -14 26 -24 40 -24 20 0 24 5 24 30 0 23 5 31 25 36
14 3 25 9 25 13 0 10 -67 41 -88 41 -21 0 -62 27 -62 41 0 5 20 9 44 9 35 0
45 4 49 20 5 20 27 28 27 10 0 -5 14 -23 30 -40 23 -23 30 -40 30 -68 0 -21
-5 -43 -11 -49 -9 -9 -8 -18 5 -37 9 -15 20 -26 24 -26 5 0 22 -14 39 -31 32
-30 32 -30 65 -13 58 30 78 49 65 63 -9 10 -8 16 7 27 11 8 28 14 38 14 21 0
22 4 8 31 -6 11 -7 19 -1 19 14 0 22 31 11 45 -16 19 48 114 77 115 34 0 40
-52 13 -114 -16 -39 -18 -51 -8 -58 21 -13 36 -9 78 18 22 15 43 24 46 21 4
-3 -1 -28 -9 -54 -9 -26 -24 -75 -33 -108 -9 -33 -19 -64 -23 -70 -16 -29 -49
-139 -44 -151 8 -20 18 -18 76 19 29 18 73 44 99 56 25 13 69 41 97 62 28 22
56 39 62 39 14 0 90 40 107 56 7 8 19 14 26 14 7 0 30 12 51 26 21 14 60 37
86 51 27 14 49 30 49 37 0 19 -38 74 -62 89 -13 9 -41 18 -64 22 -22 3 -50 16
-62 28 -11 12 -44 48 -73 80 -28 31 -55 57 -59 57 -4 0 -11 -11 -14 -24 -3
-13 -13 -26 -21 -30 -17 -6 -28 13 -45 80 -15 59 -46 97 -70 84 -10 -5 -20
-20 -22 -32 -3 -19 -64 -65 -74 -55 -2 2 16 45 41 96 38 77 51 94 79 106 19 8
37 19 41 25 12 20 78 40 131 40 88 0 194 -72 365 -245 21 -22 39 -45 39 -50 0
-5 15 -30 33 -57 25 -37 38 -48 60 -48 15 0 27 2 27 5 0 2 -14 28 -31 56 -119
202 -375 398 -599 459 -183 50 -310 62 -455 44z m79 -520 c3 -8 1 -24 -4 -34
-6 -10 -10 -28 -10 -39 0 -34 -22 -36 -47 -5 -29 37 -29 48 3 73 32 25 50 27
58 5z m356 -19 c0 -20 -52 -40 -124 -49 -77 -10 -72 9 10 40 70 27 114 31 114
9z"/>
<path d="M1233 2021 c4 -18 7 -37 7 -42 0 -14 36 -10 49 4 11 14 8 19 -43 57
-18 14 -19 13 -13 -19z"/>
<path d="M5743 1863 c9 -2 23 -2 30 0 6 3 -1 5 -18 5 -16 0 -22 -2 -12 -5z"/>
<path d="M3653 1850 c54 -16 56 -27 56 -255 0 -228 -2 -239 -56 -255 -20 -6
-4 -8 62 -9 69 0 84 3 65 10 -60 24 -60 24 -60 248 l1 206 32 -37 c81 -92 117
-137 117 -144 0 -5 15 -24 34 -44 19 -19 45 -49 58 -67 52 -72 133 -172 141
-173 4 0 7 107 7 238 0 258 1 265 55 281 23 7 9 9 -60 10 -85 0 -88 -1 -58
-14 17 -7 36 -22 42 -34 14 -26 15 -351 1 -351 -5 0 -22 19 -37 43 -16 23 -31
43 -34 45 -3 1 -46 55 -95 119 -49 64 -104 134 -123 155 -33 38 -34 38 -105
37 -56 -1 -65 -3 -43 -9z"/>
<path d="M4275 1844 c16 -8 33 -21 37 -27 4 -7 8 -107 8 -223 0 -206 -1 -211
-22 -231 -13 -12 -32 -23 -43 -26 -11 -3 82 -5 208 -6 l227 -1 -1 63 c-1 62
-1 62 -13 27 -26 -72 -154 -105 -236 -61 -42 22 -48 41 -49 154 l-1 87 44 0
c37 0 48 -5 70 -31 l26 -31 0 63 0 62 -21 -27 c-17 -22 -28 -26 -70 -26 l-49
0 0 120 0 120 88 -1 c96 -1 137 -16 159 -60 12 -22 13 -21 13 24 l0 47 -202 0
c-190 0 -201 -1 -173 -16z"/>
<path d="M4730 1847 c28 -10 40 -24 67 -77 17 -36 39 -85 47 -110 7 -25 32
-85 55 -133 23 -49 41 -95 41 -103 0 -7 10 -32 22 -56 l22 -42 18 40 c23 52
23 57 -13 133 -17 36 -39 89 -49 117 -10 27 -32 83 -50 123 -30 69 -31 74 -15
91 10 11 27 21 39 23 11 2 -33 5 -99 5 -105 1 -116 -1 -85 -11z"/>
<path d="M5063 1850 c43 -13 57 -29 57 -68 0 -19 6 -40 14 -46 8 -6 26 -49 41
-96 41 -128 87 -263 97 -284 8 -15 13 -10 34 34 28 60 28 61 12 58 -7 -2 -23
36 -39 92 -15 52 -39 128 -53 169 -14 41 -26 82 -26 91 0 22 29 47 60 53 14 2
-31 5 -100 5 -83 0 -116 -3 -97 -8z"/>
<path d="M5401 1853 c15 -2 35 -13 45 -24 15 -17 16 -26 7 -62 -15 -53 -9 -61
7 -10 15 47 36 72 75 89 27 12 22 13 -65 12 -52 0 -83 -3 -69 -5z"/>
<path d="M5678 1843 c-44 -28 -72 -104 -57 -157 13 -47 52 -84 133 -125 53
-27 70 -42 82 -69 23 -57 18 -105 -15 -141 -44 -47 -3 -37 63 16 24 19 29 32
33 85 3 35 0 75 -6 90 -12 32 -94 94 -135 102 -16 3 -48 26 -72 50 -55 54 -59
93 -15 137 33 32 29 37 -11 12z"/>
<path d="M5824 1840 c16 -13 39 -46 52 -74 l24 -51 0 65 0 65 -32 1 c-18 0
-42 4 -53 9 -13 5 -9 -1 9 -15z"/>
<path d="M1703 1783 c-48 -5 -53 -12 -22 -31 16 -10 24 -11 35 -1 11 9 18 9
26 1 14 -14 48 -16 48 -3 0 22 -13 41 -29 39 -9 -1 -35 -3 -58 -5z"/>
<path d="M1720 1714 c0 -8 5 -12 10 -9 6 3 10 10 10 16 0 5 -4 9 -10 9 -5 0
-10 -7 -10 -16z"/>
<path d="M1491 1689 c-16 -45 -14 -48 17 -40 30 8 40 34 22 56 -18 22 -27 18
-39 -16z"/>
<path d="M5412 1665 c-30 -62 -27 -71 4 -12 14 27 24 51 22 53 -3 2 -14 -17
-26 -41z"/>
<path d="M5336 1473 c-6 -14 -5 -15 5 -6 7 7 10 15 7 18 -3 3 -9 -2 -12 -12z"/>
<path d="M5591 1402 c-1 -68 0 -72 18 -63 14 8 27 6 50 -5 17 -9 37 -13 44
-11 8 4 6 6 -4 6 -22 1 -55 39 -83 97 l-25 49 0 -73z"/>
<path d="M5743 1313 c9 -2 23 -2 30 0 6 3 -1 5 -18 5 -16 0 -22 -2 -12 -5z"/>
</g>
</svg>
